<?xml version="1.0" encoding="UTF-8"?> <svg xmlns="http://www.w3.org/2000/svg" xmlns:xlink="http://www.w3.org/1999/xlink" version="1.1" id="Layer_1" x="0px" y="0px" viewBox="0 0 55.1 54" style="enable-background:new 0 0 55.1 54;" xml:space="preserve"> <path d="M34.9,4.6c-4.1-4.1-10.7-4.1-14.7,0l-15,15c-4.1,4.1-4.1,10.7,0,14.7l15,15c4.1,4.1,10.7,4.1,14.7,0l15-15 c4.1-4.1,4.1-10.7,0-14.7L34.9,4.6z M33.5,6l15,15c3.3,3.3,3.3,8.6,0,11.9l-15,15c-3.3,3.3-8.6,3.3-11.9,0l-15-15 c-3.3-3.3-3.3-8.6,0-11.9l15-15C24.9,2.8,30.2,2.8,33.5,6z M31.5,11.1c-2.2-2.2-5.7-2.2-7.8,0l-12,12c-2.2,2.2-2.2,5.7,0,7.8l12,12 c2.2,2.2,5.7,2.2,7.8,0l12-12c2.2-2.2,2.1-5.7,0-7.8L31.5,11.1z M30.1,12.5l12,12c1.4,1.4,1.4,3.6,0,5l-12,12c-1.4,1.4-3.6,1.4-5,0 l-12-12c-1.4-1.4-1.4-3.6,0-5l12-12C26.5,11.1,28.7,11.1,30.1,12.5z M27.6,18.5L19.1,27l8.5,8.5l8.5-8.5L27.6,18.5z M27.6,21.3 l5.7,5.7l-5.7,5.7L21.9,27L27.6,21.3z"></path> </svg> 