<?xml version="1.0" encoding="UTF-8"?> <svg xmlns="http://www.w3.org/2000/svg" xmlns:xlink="http://www.w3.org/1999/xlink" version="1.1" id="Layer_1" x="0px" y="0px" viewBox="0 0 55.9 55" style="enable-background:new 0 0 55.9 55;" xml:space="preserve"> <path d="M6.9,6.5v42h42v-2h-40v-40H6.9z M15.9,8.5c-0.6,0-1,0.4-1,1c0,0.6,0.4,1,1,1s1-0.4,1-1C16.9,9,16.5,8.5,15.9,8.5z M25.9,8.5 c-0.6,0-1,0.4-1,1c0,0.6,0.4,1,1,1s1-0.4,1-1C26.9,9,26.5,8.5,25.9,8.5z M35.9,8.5c-0.6,0-1,0.4-1,1c0,0.6,0.4,1,1,1s1-0.4,1-1 C36.9,9,36.5,8.5,35.9,8.5z M45.9,8.5c-0.6,0-1,0.4-1,1c0,0.6,0.4,1,1,1s1-0.4,1-1C46.9,9,46.5,8.5,45.9,8.5z M47.9,16.5 c-0.3,0-0.5,0.1-0.7,0.3L35.9,28.1l-9.3-9.3c-0.4-0.4-1-0.4-1.4,0l-14,14c-0.4,0.4-0.4,1,0,1.4s1,0.4,1.4,0c0,0,0,0,0,0l13.3-13.3 l9.3,9.3c0.4,0.4,1,0.4,1.4,0l12-12c0.4-0.4,0.4-1,0-1.4C48.5,16.6,48.2,16.5,47.9,16.5z M15.9,18.5c-0.6,0-1,0.4-1,1s0.4,1,1,1 s1-0.4,1-1S16.5,18.5,15.9,18.5z M35.9,18.5c-0.6,0-1,0.4-1,1s0.4,1,1,1s1-0.4,1-1S36.5,18.5,35.9,18.5z M25.9,28.5 c-0.6,0-1,0.4-1,1s0.4,1,1,1s1-0.4,1-1S26.5,28.5,25.9,28.5z M45.9,28.5c-0.6,0-1,0.4-1,1s0.4,1,1,1s1-0.4,1-1S46.5,28.5,45.9,28.5z M15.9,38.5c-0.6,0-1,0.4-1,1s0.4,1,1,1s1-0.4,1-1S16.5,38.5,15.9,38.5z M25.9,38.5c-0.6,0-1,0.4-1,1s0.4,1,1,1s1-0.4,1-1 S26.5,38.5,25.9,38.5z M35.9,38.5c-0.6,0-1,0.4-1,1s0.4,1,1,1s1-0.4,1-1S36.5,38.5,35.9,38.5z M45.9,38.5c-0.6,0-1,0.4-1,1 s0.4,1,1,1s1-0.4,1-1S46.5,38.5,45.9,38.5z"></path> </svg> 