<?xml version="1.0" encoding="UTF-8"?> <svg xmlns="http://www.w3.org/2000/svg" xmlns:xlink="http://www.w3.org/1999/xlink" version="1.1" id="Layer_1" x="0px" y="0px" viewBox="0 0 55.6 55.8" style="enable-background:new 0 0 55.6 55.8;" xml:space="preserve"> <path d="M29.8,4.5v1v10.3c0,0.1,0,0.3,0,0.4v6.3h22v-3.3c0-0.1,0-0.3,0-0.4V4.5H29.8z M31.8,6.5h18v10.2l-4.3-3.9 c-0.3-0.3-0.8-0.3-1.2-0.1l-2.3,1.5l-4.4-4.4c-0.2-0.2-0.5-0.3-0.7-0.3c-0.2,0-0.5,0.1-0.7,0.3l-4.3,3.9V6.5z M46.3,8.5 c-0.8,0-1.5,0.7-1.5,1.5s0.7,1.5,1.5,1.5s1.5-0.7,1.5-1.5S47.1,8.5,46.3,8.5z M10.8,11.5c-2.2,0-4,1.8-4,4v22c0,0.7,0.2,1.4,0.6,2 H4.8c-0.6,0-1,0.4-1,1c0,2.7,2.3,5,5,5h38c2.7,0,5-2.3,5-5c0-0.6-0.4-1-1-1h-2.6c0.3-0.6,0.6-1.3,0.6-2v-13h-2v13c0,1.1-0.9,2-2,2 h-34c-1.1,0-2-0.9-2-2v-22c0-1.1,0.9-2,2-2h17v-2H10.8z M36.8,11.9l4.3,4.3c0.3,0.3,0.9,0.4,1.3,0.1l2.3-1.6l5.1,4.6v1.1h-18v-4.1 L36.8,11.9z M6.2,41.5h4.6h34h4.6c-0.4,1.1-1.3,2-2.6,2h-38C7.5,43.5,6.6,42.6,6.2,41.5z"></path> </svg> 